<svg width="14" height="14" viewBox="0 0 14 14" fill="none" xmlns="http://www.w3.org/2000/svg">
<path d="M13 7.99847H8V12.9985C8 13.2637 7.89464 13.518 7.70711 13.7056C7.51957 13.8931 7.26522 13.9985 7 13.9985C6.73478 13.9985 6.48043 13.8931 6.29289 13.7056C6.10536 13.518 6 13.2637 6 12.9985V7.99847H1C0.734784 7.99847 0.48043 7.89312 0.292893 7.70558C0.105357 7.51804 0 7.26369 0 6.99847C0 6.73326 0.105357 6.4789 0.292893 6.29137C0.48043 6.10383 0.734784 5.99847 1 5.99847H6V0.998474C6 0.733258 6.10536 0.478903 6.29289 0.291367C6.48043 0.103831 6.73478 -0.00152588 7 -0.00152588C7.26522 -0.00152588 7.51957 0.103831 7.70711 0.291367C7.89464 0.478903 8 0.733258 8 0.998474V5.99847H13C13.2652 5.99847 13.5196 6.10383 13.7071 6.29137C13.8946 6.4789 14 6.73326 14 6.99847C14 7.26369 13.8946 7.51804 13.7071 7.70558C13.5196 7.89312 13.2652 7.99847 13 7.99847Z" fill="white"/>
</svg>
